<svg width="611" height="487" fill="none" xmlns="http://www.w3.org/2000/svg"><path opacity=".2" fill-rule="evenodd" clip-rule="evenodd" d="M331.167 482.334L606.708 5.084H55.626l275.541 477.25zm0-2L604.976 6.084H57.358l273.809 474.25z" fill="#fff"/><path opacity=".2" fill-rule="evenodd" clip-rule="evenodd" d="M165.5 483l161.514-279.75H3.986L165.5 483zm0-2l159.782-276.75H5.718L165.5 481z" fill="#fff"/><path d="M61 5a5 5 0 11-10 0 5 5 0 0110 0zM10 204a5 5 0 11-10 0 5 5 0 0110 0zm161 278a5 5 0 11-10.001-.001A5 5 0 01171 482zm165-1a5 5 0 11-10.001-.001A5 5 0 01336 481zM611 5a5 5 0 11-10 0 5 5 0 0110 0z" fill="#fff"/></svg>