<svg width="153" height="368" viewBox="0 0 153 368" fill="none" xmlns="http://www.w3.org/2000/svg">
<path opacity="0.2" fill-rule="evenodd" clip-rule="evenodd" d="M250.129 364.29L457.718 4.73508L42.5396 4.73511L250.129 364.29ZM250.129 362.29L455.986 5.73508L44.2716 5.73511L250.129 362.29Z" fill="white"/>
<path opacity="0.2" fill-rule="evenodd" clip-rule="evenodd" d="M125.317 364.791L246.999 154.031L3.63466 154.031L125.317 364.791ZM125.317 362.791L245.267 155.031L5.36671 155.031L125.317 362.791Z" fill="white"/>
<path d="M46.5876 4.67209C46.5876 6.75251 44.9011 8.43903 42.8206 8.43903C40.7402 8.43903 39.0537 6.75251 39.0537 4.67209C39.0537 2.59167 40.7402 0.905151 42.8206 0.905151C44.9011 0.905151 46.5876 2.59167 46.5876 4.67209Z" fill="white"/>
<path d="M8.16571 154.596C8.16571 156.677 6.4792 158.363 4.39877 158.363C2.31835 158.363 0.631836 156.677 0.631836 154.596C0.631836 152.516 2.31835 150.829 4.39877 150.829C6.4792 150.829 8.16571 152.516 8.16571 154.596Z" fill="white"/>
<path d="M129.461 364.038C129.461 366.118 127.774 367.805 125.694 367.805C123.613 367.805 121.927 366.118 121.927 364.038C121.927 361.958 123.613 360.271 125.694 360.271C127.774 360.271 129.461 361.958 129.461 364.038Z" fill="white"/>
</svg>
