<svg width="153" height="368" fill="none" xmlns="http://www.w3.org/2000/svg"><path opacity=".2" fill-rule="evenodd" clip-rule="evenodd" d="M250.129 364.29L457.718 4.735H42.54L250.129 364.29zm0-2L455.986 5.735H44.272L250.129 362.29z" fill="#fff"/><path opacity=".2" fill-rule="evenodd" clip-rule="evenodd" d="M125.317 364.791l121.682-210.76H3.635l121.682 210.76zm0-2l119.95-207.76H5.367l119.95 207.76z" fill="#fff"/><path d="M46.588 4.672a3.767 3.767 0 11-7.534 0 3.767 3.767 0 017.534 0zM8.166 154.596a3.767 3.767 0 11-7.534 0 3.767 3.767 0 017.534 0zm121.295 209.442a3.768 3.768 0 11-7.535-.001 3.768 3.768 0 017.535.001z" fill="#fff"/></svg>