<svg width="314" height="385" fill="none" xmlns="http://www.w3.org/2000/svg"><path opacity=".2" fill-rule="evenodd" clip-rule="evenodd" d="M261.929 381.296L479.225 4.928H44.632L261.93 381.296zm0-2L477.493 5.928H46.364L261.93 379.296z" fill="#fff"/><path opacity=".2" fill-rule="evenodd" clip-rule="evenodd" d="M131.28 381.821l127.373-220.616H3.908L131.28 381.821zm0-2l125.641-217.616H5.64l125.64 217.616z" fill="#fff"/><path d="M48.87 4.862a3.943 3.943 0 11-7.886 0 3.943 3.943 0 017.886 0zM8.65 161.797a3.943 3.943 0 11-7.887 0 3.943 3.943 0 017.887 0zm126.968 219.235a3.944 3.944 0 11-7.888 0 3.944 3.944 0 017.888 0zm130.122-.788a3.943 3.943 0 11-7.886 0 3.943 3.943 0 017.886 0z" fill="#fff"/></svg>