<svg width="180" height="180" viewBox="0 0 180 180" fill="none" xmlns="http://www.w3.org/2000/svg">
<rect width="180" height="180" fill="#1B2931"/>
<path d="M104.084 61.3328C106.796 61.3328 109.088 63.0806 109.95 65.4994H131.55C132.413 63.0806 134.705 61.3328 137.417 61.3328C140.863 61.3328 143.667 64.1369 143.667 67.5827C143.667 71.0284 140.863 73.8325 137.417 73.8325C134.705 73.8325 132.413 72.0847 131.55 69.6659H109.948C109.086 72.0847 106.794 73.8325 104.082 73.8325C100.636 73.8325 97.8316 71.0284 97.8316 67.5827C97.8316 64.1369 100.638 61.3328 104.084 61.3328ZM137.417 69.6659C138.565 69.6659 139.5 68.7326 139.5 67.5827C139.5 66.4327 138.565 65.4994 137.417 65.4994C136.269 65.4994 135.334 66.4327 135.334 67.5827C135.334 68.7326 136.269 69.6659 137.417 69.6659ZM104.084 69.6659C105.232 69.6659 106.167 68.7326 106.167 67.5827C106.167 66.4327 105.232 65.4994 104.084 65.4994C102.936 65.4994 102 66.4327 102 67.5827C102 68.7326 102.936 69.6659 104.084 69.6659Z" fill="#00B2FF"/>
<path d="M87.4164 74.2161V61.333C87.4164 60.7788 87.6351 60.2496 88.0268 59.8601L96.3601 51.5269C96.7497 51.1352 97.2809 50.9165 97.833 50.9165H104.466C105.329 48.4978 107.621 46.7499 110.333 46.7499C113.779 46.7499 116.583 49.554 116.583 52.9998C116.583 56.4455 113.779 59.2497 110.333 59.2497C107.621 59.2497 105.329 57.5018 104.466 55.0831H98.6955L91.583 62.1954V74.2161C94.0018 75.0785 95.7497 77.3702 95.7497 80.0826C95.7497 83.5284 92.9455 86.3325 89.4997 86.3325C86.0539 86.3325 83.2497 83.5284 83.2497 80.0826C83.2497 77.3702 84.9976 75.0785 87.4164 74.2161ZM110.333 55.0831C111.481 55.0831 112.416 54.1497 112.416 52.9998C112.416 51.8498 111.481 50.9165 110.333 50.9165C109.185 50.9165 108.25 51.8498 108.25 52.9998C108.25 54.1497 109.185 55.0831 110.333 55.0831ZM89.4997 82.1659C90.6476 82.1659 91.583 81.2326 91.583 80.0826C91.583 78.9326 90.6476 77.9993 89.4997 77.9993C88.3518 77.9993 87.4164 78.9326 87.4164 80.0826C87.4164 81.2326 88.3518 82.1659 89.4997 82.1659Z" fill="#00B2FF"/>
<path d="M49.9165 82.1657C50.879 82.1657 51.779 82.4011 52.5935 82.7928L56.1665 79.2199V59.2494C56.1665 58.6953 56.3852 58.1661 56.7769 57.7766L77.6268 36.9269C77.2352 36.1124 76.9998 35.2124 76.9998 34.2499C76.9998 30.8041 79.8039 28 83.2498 28C86.6956 28 89.4998 30.8041 89.4998 34.2499C89.4998 37.6957 86.6956 40.4998 83.2498 40.4998C82.2873 40.4998 81.3873 40.2644 80.5727 39.8727L60.3331 60.1119V80.0824C60.3331 80.6366 60.1144 81.1657 59.7227 81.5553L55.5394 85.7386C55.931 86.5531 56.1665 87.4531 56.1665 88.4156C56.1665 91.8614 53.3623 94.6655 49.9165 94.6655C46.4706 94.6655 43.6665 91.8614 43.6665 88.4156C43.6665 84.9698 46.4706 82.1657 49.9165 82.1657ZM83.2498 36.3332C84.3977 36.3332 85.3331 35.3999 85.3331 34.2499C85.3331 33.0999 84.3977 32.1666 83.2498 32.1666C82.1018 32.1666 81.1664 33.0999 81.1664 34.2499C81.1664 35.3999 82.1018 36.3332 83.2498 36.3332ZM49.9165 90.4989C51.0644 90.4989 51.9998 89.5656 51.9998 88.4156C51.9998 87.2656 51.0644 86.3323 49.9165 86.3323C48.7685 86.3323 47.8331 87.2656 47.8331 88.4156C47.8331 89.5656 48.7685 90.4989 49.9165 90.4989Z" fill="#00B2FF"/>
<path d="M31.1667 57.5495V48.833C31.1667 48.2788 31.3855 47.7496 31.7771 47.3601L46.3604 32.777C46.75 32.3853 47.2813 32.1666 47.8334 32.1666H58.6333C59.4958 29.7479 61.7875 28 64.5 28C67.9458 28 70.75 30.8041 70.75 34.2499C70.75 37.6957 67.9458 40.4998 64.5 40.4998C61.7875 40.4998 59.4958 38.7519 58.6333 36.3332H48.6959L35.3334 49.6954V57.5495C37.7521 58.412 39.5 60.7036 39.5 63.416C39.5 66.8618 36.6959 69.6659 33.25 69.6659C29.8042 69.6659 27 66.8618 27 63.416C27 60.7036 28.748 58.412 31.1667 57.5495ZM64.5 36.3332C65.6479 36.3332 66.5833 35.3999 66.5833 34.2499C66.5833 33.0999 65.6479 32.1666 64.5 32.1666C63.3521 32.1666 62.4167 33.0999 62.4167 34.2499C62.4167 35.3999 63.3521 36.3332 64.5 36.3332ZM33.25 65.4993C34.398 65.4993 35.3334 64.566 35.3334 63.416C35.3334 62.2661 34.398 61.3327 33.25 61.3327C32.1021 61.3327 31.1667 62.2661 31.1667 63.416C31.1667 64.566 32.1021 65.4993 33.25 65.4993Z" fill="#00B2FF"/>
<path d="M60.3313 140.883V110.949C57.9147 110.086 56.1668 107.794 56.1668 105.082C56.1668 101.636 58.9709 98.8321 62.4168 98.8321C65.1293 98.8321 67.4209 100.58 68.2834 102.999H89.8834C90.7459 100.58 93.0376 98.8321 95.75 98.8321C98.4625 98.8321 100.754 100.58 101.617 102.999H113.638L121.377 95.2592C120.985 94.4446 120.75 93.5446 120.75 92.5822C120.75 89.1364 123.554 86.3323 127 86.3323C130.446 86.3323 133.25 89.1364 133.25 92.5822C133.25 96.0279 130.446 98.8321 127 98.8321C126.038 98.8321 125.138 98.5966 124.323 98.205L115.973 106.555C115.583 106.946 115.052 107.165 114.5 107.165H101.617C100.754 109.584 98.4625 111.332 95.75 111.332C93.0376 111.332 90.7459 109.584 89.8834 107.165H68.2813C67.6522 108.93 66.2626 110.319 64.498 110.949V140.883C66.9168 141.746 68.6647 144.037 68.6647 146.75C68.6647 150.196 65.8605 153 62.4147 153C58.9688 153 56.1647 150.196 56.1647 146.75C56.1647 144.037 57.9126 141.746 60.3313 140.883ZM127 94.6655C128.148 94.6655 129.083 93.7321 129.083 92.5822C129.083 91.4322 128.148 90.4989 127 90.4989C125.852 90.4989 124.917 91.4322 124.917 92.5822C124.917 93.7321 125.852 94.6655 127 94.6655ZM95.75 107.165C96.898 107.165 97.8334 106.232 97.8334 105.082C97.8334 103.932 96.898 102.999 95.75 102.999C94.6021 102.999 93.6667 103.932 93.6667 105.082C93.6667 106.232 94.6021 107.165 95.75 107.165ZM62.4168 148.831C63.5647 148.831 64.5001 147.898 64.5001 146.748C64.5001 145.598 63.5647 144.665 62.4168 144.665C61.2688 144.665 60.3334 145.598 60.3334 146.748C60.3334 147.898 61.2688 148.831 62.4168 148.831ZM62.4168 107.165C63.5647 107.165 64.5001 106.232 64.5001 105.082C64.5001 103.932 63.5647 102.999 62.4168 102.999C61.2688 102.999 60.3334 103.932 60.3334 105.082C60.3334 106.232 61.2688 107.165 62.4168 107.165Z" fill="#00B2FF"/>
<path d="M70.75 70.0492V63.416C70.75 62.8619 70.9688 62.3327 71.3604 61.9431L96.3771 36.9269C95.9854 36.1124 95.75 35.2124 95.75 34.2499C95.75 30.8041 98.5541 28 102 28C104.712 28 107.004 29.7479 107.867 32.1666H116.583C117.733 32.1666 118.667 33.0978 118.667 34.2499V39.6373L126.406 47.3767C127.221 46.9851 128.121 46.7497 129.083 46.7497C132.529 46.7497 135.333 49.5538 135.333 52.9995C135.333 56.4453 132.529 59.2494 129.083 59.2494C125.637 59.2494 122.833 56.4453 122.833 52.9995C122.833 52.0371 123.069 51.1371 123.46 50.3225L115.11 41.9727C114.719 41.5831 114.5 41.0539 114.5 40.4998V36.3332H107.867C107.004 38.7519 104.712 40.4998 102 40.4998C101.037 40.4998 100.137 40.2644 99.3229 39.8727L74.9167 64.2785V70.0492C77.3354 70.9117 79.0833 73.2034 79.0833 75.9158C79.0833 79.3616 76.2792 82.1657 72.8333 82.1657C69.3875 82.1657 66.5833 79.3616 66.5833 75.9158C66.5833 73.2034 68.3313 70.9117 70.75 70.0492ZM129.083 55.0828C130.231 55.0828 131.167 54.1495 131.167 52.9995C131.167 51.8496 130.231 50.9163 129.083 50.9163C127.935 50.9163 127 51.8496 127 52.9995C127 54.1495 127.935 55.0828 129.083 55.0828ZM102 36.3332C103.148 36.3332 104.083 35.3999 104.083 34.2499C104.083 33.0999 103.148 32.1666 102 32.1666C100.852 32.1666 99.9166 33.0999 99.9166 34.2499C99.9166 35.3999 100.852 36.3332 102 36.3332ZM72.8333 77.9991C73.9812 77.9991 74.9167 77.0658 74.9167 75.9158C74.9167 74.7658 73.9812 73.8325 72.8333 73.8325C71.6854 73.8325 70.75 74.7658 70.75 75.9158C70.75 77.0658 71.6854 77.9991 72.8333 77.9991Z" fill="#00B2FF"/>
<path d="M77.0001 86.3323C79.7126 86.3323 82.0042 88.0802 82.8667 90.4989H107.388L119.277 78.6095C119.667 78.2179 120.198 77.9991 120.75 77.9991H142.804L147.833 72.97V55.9453L131.76 39.8727C130.946 40.2644 130.046 40.4998 129.083 40.4998C125.638 40.4998 122.833 37.6957 122.833 34.2499C122.833 30.8041 125.638 28 129.083 28C132.529 28 135.333 30.8041 135.333 34.2499C135.333 35.2124 135.098 36.1124 134.706 36.9269L151.39 53.61C151.781 53.9995 152 54.5287 152 55.0828V73.8325C152 74.3867 151.781 74.9158 151.39 75.3054L145.14 81.5553C144.75 81.947 144.219 82.1657 143.667 82.1657H121.613L109.723 94.0551C109.333 94.4467 108.802 94.6655 108.25 94.6655H82.8667C82.0042 97.0842 79.7126 98.8321 77.0001 98.8321C73.5543 98.8321 70.7501 96.0279 70.7501 92.5822C70.7501 89.1364 73.5543 86.3323 77.0001 86.3323ZM129.083 32.1666C127.935 32.1666 127 33.0999 127 34.2499C127 35.3999 127.935 36.3332 129.083 36.3332C130.231 36.3332 131.167 35.3999 131.167 34.2499C131.167 33.0999 130.231 32.1666 129.083 32.1666ZM77.0001 94.6655C78.148 94.6655 79.0834 93.7322 79.0834 92.5822C79.0834 91.4322 78.148 90.4989 77.0001 90.4989C75.8522 90.4989 74.9168 91.4322 74.9168 92.5822C74.9168 93.7322 75.8522 94.6655 77.0001 94.6655Z" fill="#00B2FF"/>
<path d="M33.2501 77.9993C34.2126 77.9993 35.1126 78.2347 35.9272 78.6264L43.6668 70.8869V58.8663C41.248 58.0038 39.5001 55.7122 39.5001 52.9998C39.5001 49.554 42.3043 46.7499 45.7501 46.7499C49.1959 46.7499 52.0001 49.554 52.0001 52.9998C52.0001 55.7122 50.2522 58.0038 47.8334 58.8663V71.7494C47.8334 72.3036 47.6147 72.8327 47.223 73.2223L38.873 81.5722C39.2647 82.3867 39.5001 83.2867 39.5001 84.2492C39.5001 86.9617 37.7522 89.2533 35.3334 90.1158V91.7199L51.3897 107.776C51.7813 108.165 52.0001 108.695 52.0001 109.249V111.715C54.4188 112.578 56.1667 114.87 56.1667 117.582C56.1667 120.294 54.4188 122.586 52.0001 123.449V128.384C54.4188 129.246 56.1667 131.538 56.1667 134.25C56.1667 137.696 53.3626 140.5 49.9168 140.5C46.4709 140.5 43.6668 137.696 43.6668 134.25C43.6668 131.538 45.4147 129.246 47.8334 128.384V123.449C45.4147 122.586 43.6668 120.294 43.6668 117.582C43.6668 114.87 45.4147 112.578 47.8334 111.715V110.111L31.7772 94.0553C31.3855 93.6657 31.1668 93.1366 31.1668 92.5824V90.1158C28.748 89.2533 27.0001 86.9617 27.0001 84.2492C27.0001 80.8034 29.8043 77.9993 33.2501 77.9993ZM45.7501 55.0831C46.898 55.0831 47.8334 54.1497 47.8334 52.9998C47.8334 51.8498 46.898 50.9165 45.7501 50.9165C44.6022 50.9165 43.6668 51.8498 43.6668 52.9998C43.6668 54.1497 44.6022 55.0831 45.7501 55.0831ZM49.9168 136.332C51.0647 136.332 52.0001 135.398 52.0001 134.248C52.0001 133.098 51.0647 132.165 49.9168 132.165C48.7688 132.165 47.8334 133.098 47.8334 134.248C47.8334 135.398 48.7688 136.332 49.9168 136.332ZM49.9168 119.665C51.0647 119.665 52.0001 118.732 52.0001 117.582C52.0001 116.432 51.0647 115.499 49.9168 115.499C48.7688 115.499 47.8334 116.432 47.8334 117.582C47.8334 118.732 48.7688 119.665 49.9168 119.665ZM33.2501 86.3325C34.398 86.3325 35.3334 85.3992 35.3334 84.2492C35.3334 83.0992 34.398 82.1659 33.2501 82.1659C32.1022 82.1659 31.1668 83.0992 31.1668 84.2492C31.1668 85.3992 32.1022 86.3325 33.2501 86.3325Z" fill="#00B2FF"/>
</svg>
