<svg width="1892" height="1114" viewBox="0 0 1892 1114" fill="none" xmlns="http://www.w3.org/2000/svg">
<path fill-rule="evenodd" clip-rule="evenodd" d="M426.094 0.515076L425.094 1.09241L203.549 129.002L202.549 129.579L203.549 130.156L425.094 258.066L426.094 258.643V257.488L426.094 1.6698V0.515076ZM425.094 2.24713L204.549 129.579L425.094 256.911L425.094 2.24713ZM299.553 563.484C301.945 562.103 302.764 559.045 301.383 556.653C300.003 554.262 296.945 553.443 294.553 554.823C292.162 556.204 291.342 559.262 292.723 561.653C292.737 561.678 292.751 561.702 292.765 561.726L-174.889 831.726C-174.903 831.702 -174.917 831.678 -174.931 831.653C-176.311 829.262 -179.369 828.443 -181.761 829.823C-184.152 831.204 -184.972 834.262 -183.591 836.653C-182.21 839.045 -179.152 839.864 -176.761 838.484C-176.085 838.093 -175.535 837.569 -175.124 836.964L292.328 1106.85C291.701 1108.26 291.734 1109.94 292.566 1111.38C293.947 1113.77 297.005 1114.59 299.396 1113.21C301.788 1111.83 302.607 1108.77 301.226 1106.38C300.447 1105.03 299.134 1104.18 297.708 1103.95L297.708 564.112C298.34 564.028 298.967 563.822 299.553 563.484ZM293.367 562.533C294.245 563.493 295.451 564.054 296.708 564.142L296.708 1103.88C295.92 1103.91 295.127 1104.13 294.396 1104.55C293.755 1104.92 293.227 1105.41 292.824 1105.98L-174.648 836.084C-174.201 835.013 -174.129 833.796 -174.491 832.651L293.367 562.533ZM1668.06 673.488V417.67V416.515L1669.06 417.092L1890.61 545.002L1891.61 545.579L1890.61 546.156L1669.06 674.066L1668.06 674.643V673.488ZM1889.61 545.579L1669.06 672.911V418.247L1889.61 545.579ZM837.374 266.158L837.374 805.948C838.066 806.014 838.755 806.226 839.396 806.596C840.127 807.018 840.711 807.596 841.13 808.265L1308.56 538.394C1308.01 537.261 1307.89 535.936 1308.28 534.695L840.425 264.578C839.615 265.464 838.525 266.01 837.374 266.158ZM1308.68 533.771L841.027 263.77C841.041 263.746 841.055 263.722 841.069 263.698C842.45 261.307 841.631 258.249 839.239 256.868C836.848 255.487 833.79 256.307 832.409 258.698C831.028 261.089 831.848 264.147 834.239 265.528C834.915 265.918 835.644 266.133 836.374 266.186L836.374 805.953C834.837 806.116 833.398 806.986 832.566 808.426C831.185 810.818 832.005 813.876 834.396 815.256C836.788 816.637 839.846 815.818 841.226 813.426C842.005 812.077 842.084 810.515 841.575 809.163L1309.09 539.245C1309.47 539.75 1309.97 540.19 1310.55 540.528C1312.94 541.909 1316 541.089 1317.38 538.698C1318.76 536.307 1317.94 533.249 1315.55 531.868C1313.16 530.487 1310.1 531.307 1308.72 533.698C1308.71 533.722 1308.7 533.747 1308.68 533.771Z" fill="#F2F2F2"/>
</svg>
