<svg width="314" height="385" viewBox="0 0 314 385" fill="none" xmlns="http://www.w3.org/2000/svg">
<path opacity="0.2" fill-rule="evenodd" clip-rule="evenodd" d="M261.929 381.296L479.225 4.9277L44.6321 4.92774L261.929 381.296ZM261.929 379.296L477.493 5.9277L46.3642 5.92774L261.929 379.296Z" fill="white"/>
<path opacity="0.2" fill-rule="evenodd" clip-rule="evenodd" d="M131.28 381.821L258.653 161.205L3.9076 161.205L131.28 381.821ZM131.28 379.821L256.921 162.205L5.63966 162.205L131.28 379.821Z" fill="white"/>
<path d="M48.8701 4.86179C48.8701 7.0395 47.1047 8.80488 44.927 8.80488C42.7493 8.80488 40.9839 7.0395 40.9839 4.86179C40.9839 2.68408 42.7493 0.918701 44.927 0.918701C47.1047 0.918701 48.8701 2.68408 48.8701 4.86179Z" fill="white"/>
<path d="M8.65034 161.797C8.65034 163.974 6.88496 165.74 4.70725 165.74C2.52954 165.74 0.76416 163.974 0.76416 161.797C0.76416 159.619 2.52954 157.854 4.70725 157.854C6.88496 157.854 8.65034 159.619 8.65034 161.797Z" fill="white"/>
<path d="M135.618 381.032C135.618 383.21 133.852 384.976 131.675 384.976C129.497 384.976 127.731 383.21 127.731 381.032C127.731 378.855 129.497 377.089 131.675 377.089C133.852 377.089 135.618 378.855 135.618 381.032Z" fill="white"/>
<path d="M265.74 380.244C265.74 382.422 263.974 384.187 261.797 384.187C259.619 384.187 257.854 382.422 257.854 380.244C257.854 378.066 259.619 376.301 261.797 376.301C263.974 376.301 265.74 378.066 265.74 380.244Z" fill="white"/>
</svg>
